<svg width="200" height="60" viewBox="0 0 200 60" fill="none" xmlns="http://www.w3.org/2000/svg">
  <!-- Brain Icon -->
  <g transform="translate(10, 10)">
    <rect width="40" height="40" rx="8" fill="#0A84FF"/>
    <path d="M8 12C8 10.8954 8.89543 10 10 10H30C31.1046 10 32 10.8954 32 12V28C32 29.1046 31.1046 30 30 30H10C8.89543 30 8 29.1046 8 28V12Z" fill="white"/>
    <path d="M12 16C12 15.4477 12.4477 15 13 15H27C27.5523 15 28 15.4477 28 16V24C28 24.5523 27.5523 25 27 25H13C12.4477 25 12 24.5523 12 24V16Z" fill="#0A84FF"/>
    <circle cx="20" cy="20" r="3" fill="white"/>
  </g>
  
  <!-- Company Name -->
  <text x="65" y="25" font-family="DM Serif Display, serif" font-size="24" font-weight="400" fill="#0A0A0A">Trucept Consulting</text>
  <text x="65" y="40" font-family="Inter, sans-serif" font-size="12" font-weight="400" fill="#6B7280">SARL</text>
</svg>